<!-- Generated by IcoMoon.io -->
<svg version="1.1" xmlns="http://www.w3.org/2000/svg" width="7424" height="1024" viewBox="0 0 7424 1024">
<g id="icomoon-ignore">
</g>
<path d="M424.653 30.31h169.062l106.496 312.832 106.496-312.832h170.394l-161.075 429.978 119.808 302.182 267.571-734.822h199.68l-384.717 945.152h-154.419l-163.738-396.698-163.738 396.698h-154.419l-382.054-945.152h197.018l268.902 734.822 117.146-302.182-158.413-429.978zM1760.22 986.112c-55.91 0-106.496-9.318-151.757-27.955-45.261-19.523-83.866-45.706-115.814-78.541s-56.796-70.999-74.547-114.483c-16.86-43.484-25.293-89.19-25.293-137.114 0-49.7 8.433-96.292 25.293-139.776 16.86-44.374 41.267-82.978 73.216-115.814 31.949-33.724 70.554-60.348 115.814-79.872 46.147-19.524 97.623-29.286 154.419-29.286s107.382 9.762 151.757 29.286c45.261 19.524 83.42 45.705 114.483 78.541 31.949 32.836 55.91 70.998 71.885 114.483 16.86 43.484 25.293 88.745 25.293 135.782 0 11.535-0.445 22.63-1.331 33.28 0 10.65-0.886 19.523-2.662 26.624h-539.136c2.662 27.51 9.318 51.917 19.968 73.216s24.407 39.491 41.267 54.579c16.86 15.089 35.942 26.624 57.242 34.611s43.484 11.981 66.56 11.981c35.497 0 68.777-8.433 99.84-25.293 31.949-17.751 53.693-40.822 65.229-69.222l153.088 42.598c-25.738 53.248-67.005 97.178-123.802 131.789-55.91 33.725-122.916 50.586-201.011 50.586zM1941.263 565.453c-4.439-52.362-23.962-94.071-58.573-125.133-33.725-31.949-74.993-47.923-123.802-47.923-23.962 0-46.592 4.438-67.891 13.312-20.413 7.987-38.605 19.524-54.579 34.611s-29.286 33.28-39.936 54.579c-9.764 21.299-15.529 44.815-17.306 70.554h362.086zM2670.275 986.112c-53.248 0-100.731-11.981-142.438-35.942-41.713-23.962-74.547-56.796-98.509-98.509v121.139h-155.75v-971.776h178.381v396.698c24.847-42.598 57.242-75.434 97.178-98.509 40.822-23.962 88.3-35.942 142.438-35.942 45.261 0 86.528 9.762 123.802 29.286s69.222 45.705 95.846 78.541c27.51 32.836 48.364 71.441 62.566 115.814 15.084 44.375 22.63 90.967 22.63 139.776 0 50.586-8.433 97.623-25.293 141.107-15.974 43.484-38.605 81.649-67.891 114.483-29.286 31.949-63.898 57.242-103.834 75.878s-82.98 27.955-129.126 27.955zM2621.020 834.355c28.396 0 54.579-5.325 78.541-15.974 23.962-11.535 44.37-26.624 61.235-45.261 16.86-18.637 29.727-40.381 38.605-65.229 9.759-24.847 14.643-51.471 14.643-79.872s-4.439-55.465-13.312-81.203c-8.878-25.738-21.745-48.367-38.605-67.891-15.974-19.524-35.057-35.055-57.242-46.592-22.19-11.537-46.592-17.306-73.216-17.306-39.936 0-75.878 13.312-107.827 39.936-31.063 25.737-55.025 57.687-71.885 95.846v166.4c6.211 17.751 15.084 33.725 26.624 47.923 12.421 14.198 26.179 26.624 41.267 37.274 15.084 9.764 31.503 17.751 49.254 23.962 17.746 5.325 35.052 7.987 51.917 7.987z"></path>
<path d="M3737.615 275.251c-6.216-6.212-17.751-14.643-34.611-25.293-15.974-10.65-35.942-20.855-59.904-30.618-23.076-10.65-48.369-19.524-75.878-26.624-27.515-7.1-55.47-10.65-83.866-10.65-50.586 0-88.305 9.318-113.152 27.955-24.852 18.637-37.274 44.817-37.274 78.541 0 19.524 4.434 35.942 13.312 49.254 9.759 12.425 23.516 23.518 41.267 33.28 17.746 9.762 39.936 18.637 66.56 26.624 27.51 7.987 59.013 16.418 94.515 25.293 46.147 12.425 87.859 25.737 125.133 39.936 38.159 14.199 70.108 31.949 95.846 53.248 26.624 21.299 47.032 47.037 61.235 77.21 14.198 29.286 21.299 65.674 21.299 109.158 0 50.586-9.764 94.070-29.286 130.458-18.637 35.497-44.375 64.343-77.21 86.528-31.949 22.185-69.222 38.605-111.821 49.254-41.713 9.764-85.642 14.643-131.789 14.643-70.999 0-141.107-10.65-210.33-31.949s-131.348-51.471-186.368-90.522l81.203-158.413c7.987 7.987 22.185 18.637 42.598 31.949 21.299 12.426 46.147 25.293 74.547 38.605 28.396 12.426 59.904 23.076 94.515 31.949s70.108 13.312 106.496 13.312c101.171 0 151.757-32.394 151.757-97.178 0-20.413-5.77-37.719-17.306-51.917-11.54-14.198-27.955-26.624-49.254-37.274s-47.037-20.413-77.21-29.286c-30.177-8.873-63.898-18.637-101.171-29.286-45.261-12.426-84.756-25.738-118.477-39.936-32.84-15.089-60.349-32.393-82.534-51.917-22.19-20.412-39.050-43.486-50.586-69.222-10.65-26.624-15.974-58.129-15.974-94.515 0-47.923 8.873-90.522 26.624-127.795 17.746-37.274 42.153-68.335 73.216-93.184 31.949-24.849 68.777-43.486 110.49-55.91 41.708-13.312 86.528-19.968 134.451-19.968 66.56 0 127.795 10.65 183.706 31.949 55.91 20.412 104.719 44.817 146.432 73.216l-81.203 149.094zM4423.747 936.858c-23.962 10.65-53.248 21.299-87.859 31.949s-70.999 15.974-109.158 15.974c-24.852 0-48.369-3.108-70.554-9.318-21.299-6.211-40.381-15.974-57.242-29.286-15.974-14.198-28.846-31.949-38.605-53.248-9.764-22.185-14.643-48.809-14.643-79.872v-400.691h-91.853v-137.114h91.853v-226.304h178.381v226.304h146.432v137.114h-146.432v340.787c0 24.847 6.211 42.598 18.637 53.248 13.312 9.764 29.286 14.643 47.923 14.643s36.828-3.108 54.579-9.318c17.746-6.211 31.949-11.535 42.598-15.974l35.942 141.107zM4769.577 986.112c-71.885 0-126.464-23.076-163.738-69.222s-55.91-114.483-55.91-205.005v-436.634h178.381v398.029c0 107.382 38.605 161.075 115.814 161.075 34.611 0 67.891-10.204 99.84-30.618 32.835-21.299 59.459-53.248 79.872-95.846v-432.64h178.391v492.544c0 18.637 3.072 31.949 9.318 39.936 7.066 7.987 18.176 12.426 33.28 13.312v151.757c-17.766 3.548-32.87 5.77-45.261 6.656-11.571 0.886-22.221 1.331-31.949 1.331-31.949 0-58.143-7.101-78.551-21.299-19.528-15.089-31.063-35.497-34.611-61.235l-3.994-55.91c-31.063 47.923-70.999 83.866-119.808 107.827-48.814 23.962-102.502 35.942-161.075 35.942zM5708.288 986.112c-47.923 0-92.314-9.318-133.12-27.955s-75.878-44.375-105.165-77.21c-29.286-32.835-52.378-70.999-69.222-114.483-15.974-44.375-23.962-91.853-23.962-142.438s7.526-97.623 22.63-141.107c15.974-43.486 37.734-81.647 65.229-114.483s60.365-58.573 98.509-77.21c38.144-18.637 79.872-27.955 125.133-27.955 51.456 0 97.638 12.425 138.445 37.274 41.728 24.849 74.086 57.242 97.178 97.178v-396.698h178.381v766.771c0 18.637 3.123 31.949 9.318 39.936s16.845 12.426 31.949 13.312v151.757c-31.078 6.211-56.371 9.318-75.878 9.318-31.949 0-58.112-7.987-78.541-23.962s-31.949-36.828-34.611-62.566l-3.994-43.93c-25.754 44.375-60.774 78.095-105.165 101.171-43.469 22.185-89.19 33.28-137.114 33.28zM5754.88 834.355c16.845 0 34.15-2.662 51.917-7.987 17.766-6.211 34.15-14.643 49.254-25.293s28.416-23.076 39.936-37.274c12.442-14.198 21.76-29.732 27.955-46.592v-166.4c-7.117-19.523-17.306-37.274-30.618-53.248-12.442-16.862-27.085-31.062-43.93-42.598-15.974-12.425-33.28-22.186-51.917-29.286-17.766-7.1-35.482-10.65-53.248-10.65-26.624 0-51.456 5.769-74.547 17.306-22.17 11.537-41.267 27.511-57.242 47.923-15.974 19.524-28.416 42.153-37.274 67.891s-13.312 52.362-13.312 79.872c0 29.286 4.864 56.356 14.643 81.203s23.091 46.592 39.936 65.229c16.845 18.637 36.813 33.28 59.904 43.93 23.962 10.65 50.125 15.974 78.541 15.974zM6317.363 972.8v-697.549h178.381v697.549h-178.381zM6317.363 178.074v-177.050h178.381v177.050h-178.381zM7018.752 986.112c-56.832 0-107.827-9.764-153.088-29.286s-83.866-45.706-115.814-78.541c-31.078-33.725-55.040-72.33-71.885-115.814-16.896-43.484-25.293-89.19-25.293-137.114 0-48.809 8.397-94.961 25.293-138.445 16.845-43.486 40.806-81.647 71.885-114.483 31.949-33.724 70.554-60.348 115.814-79.872s96.256-29.286 153.088-29.286c56.781 0 107.366 9.762 151.757 29.286 45.261 19.524 83.405 46.148 114.483 79.872 31.949 32.836 56.32 70.998 73.216 114.483 16.845 43.484 25.293 89.636 25.293 138.445 0 47.923-8.448 93.629-25.293 137.114-16.896 43.484-40.858 82.089-71.885 115.814-31.078 32.835-69.222 59.018-114.483 78.541s-96.307 29.286-153.088 29.286zM6836.378 625.357c0 31.063 4.403 59.459 13.312 85.197 9.728 24.847 22.63 46.592 38.605 65.229 16.845 18.637 36.352 33.28 58.573 43.93 22.17 9.764 46.131 14.643 71.885 14.643 25.702 0 49.664-4.879 71.885-14.643 22.17-10.65 41.267-25.293 57.242-43.93 16.845-18.637 29.696-40.822 38.605-66.56 9.728-25.738 14.643-54.134 14.643-85.197 0-30.172-4.915-58.127-14.643-83.866-8.909-25.738-21.76-47.923-38.605-66.56-15.974-18.637-35.072-32.836-57.242-42.598-22.221-10.65-46.182-15.974-71.885-15.974-25.754 0-49.715 5.325-71.885 15.974-22.221 10.65-41.728 25.293-58.573 43.93-15.974 18.637-28.877 40.822-38.605 66.56-8.909 25.738-13.312 53.693-13.312 83.866z"></path>
</svg>
